<svg width="30" height="31" viewBox="0 0 30 31" fill="none" xmlns="http://www.w3.org/2000/svg">
<path d="M4.98442 27.3179C4.87549 27.2071 4.72431 27.1434 4.57021 27.1434C4.4161 27.1434 4.26492 27.2071 4.15594 27.3179C4.04695 27.4287 3.98425 27.5823 3.98425 27.7389C3.98425 27.8955 4.04689 28.0491 4.15594 28.1598C4.26492 28.2705 4.4161 28.3343 4.57021 28.3343C4.72431 28.3343 4.87549 28.2706 4.98442 28.1598C5.0934 28.0491 5.15616 27.8955 5.15616 27.7389C5.15616 27.5823 5.09346 27.4286 4.98442 27.3179Z" fill="#FFBB01"/>
<path d="M27.5116 11.1225C27.4026 11.0117 27.252 10.9481 27.0973 10.9481C26.9432 10.9481 26.792 11.0117 26.683 11.1225C26.5741 11.2333 26.5114 11.3869 26.5114 11.5435C26.5114 11.7001 26.574 11.8537 26.683 11.9644C26.792 12.0752 26.9432 12.1389 27.0973 12.1389C27.252 12.1389 27.4026 12.0752 27.5116 11.9644C27.6211 11.8537 27.6838 11.7001 27.6838 11.5435C27.6838 11.3869 27.6211 11.2333 27.5116 11.1225Z" fill="#FFBB01"/>
<path d="M29.8284 0.404169C29.7184 0.292526 29.5694 0.229767 29.4139 0.229767L14.9999 0.230541C14.6763 0.230541 14.414 0.497176 14.414 0.825975V2.52874L8.85978 4.04108C8.54717 4.12623 8.36166 4.4527 8.44545 4.77031L11.3241 15.6871L8.83382 18.2176C8.51688 17.7474 7.98471 17.4381 7.38277 17.4381H1.7578C0.788516 17.4381 0 18.2394 0 19.2243V28.9297C0 29.9146 0.788516 30.716 1.7578 30.716H7.38282C8.20626 30.716 8.89898 30.1375 9.08882 29.3596L9.78552 29.977C10.3234 30.4536 11.0124 30.716 11.7261 30.716H29.414C29.7376 30.716 30 30.4494 30 30.1206V0.825201C29.9999 0.667292 29.9382 0.515813 29.8284 0.404169ZM7.96866 28.9297C7.96866 29.258 7.7058 29.5252 7.38271 29.5252H1.75774C1.43465 29.5252 1.17179 29.2581 1.17179 28.9297V19.2244C1.17179 18.8961 1.43465 18.629 1.75774 18.629H3.9843V25.4881C3.9843 25.8169 4.24669 26.0835 4.57025 26.0835C4.89382 26.0835 5.1562 25.8169 5.1562 25.4881V18.629H7.38277C7.70586 18.629 7.96872 18.8961 7.96872 19.2244V28.9297H7.96866ZM9.72904 5.03724L14.414 3.76158V5.96796L14.0213 6.0749C13.8711 6.11581 13.7432 6.21554 13.6655 6.35231C13.5878 6.48909 13.5667 6.65158 13.6069 6.80413C13.8321 7.65804 13.3316 8.53887 12.4913 8.76769C12.341 8.80866 12.2129 8.90857 12.1352 9.04564C12.0576 9.18265 12.0367 9.34544 12.0773 9.49811L14.3613 18.0925H13.1853L12.5792 15.6831C12.5599 15.6064 12.5262 15.5357 12.481 15.4743L9.72904 5.03724ZM14.414 8.69856V13.7229L13.3452 9.70163C13.7917 9.46739 14.157 9.11691 14.414 8.69856ZM22.832 29.5251H11.726C11.2956 29.5251 10.88 29.3668 10.5556 29.0794L9.14056 27.8254V19.5901L11.6987 16.9906L12.1627 18.8352C12.229 19.0988 12.4626 19.2832 12.7303 19.2832L24.2504 19.2839C24.7028 19.2839 25.0707 19.6578 25.0707 20.1175C25.0707 20.5772 24.7028 20.9511 24.2504 20.9511H18.3475C18.024 20.9511 17.7616 21.2177 17.7616 21.5465C17.7616 21.8753 18.024 22.142 18.3475 22.142H26.0844C26.5368 22.142 26.9048 22.5159 26.9048 22.9756C26.9048 23.4353 26.5368 23.8092 26.0844 23.8092H18.3475C18.024 23.8092 17.7616 24.0758 17.7616 24.4046C17.7616 24.7334 18.024 25.0001 18.3475 25.0001H24.8307C25.283 25.0001 25.651 25.374 25.651 25.8337C25.651 26.2933 25.283 26.6673 24.8307 26.6673H18.3475C18.024 26.6673 17.7616 26.9339 17.7616 27.2627C17.7616 27.5915 18.024 27.8581 18.3475 27.8581H22.832C23.2843 27.8581 23.6523 28.2321 23.6523 28.6917C23.6523 29.1512 23.2843 29.5251 22.832 29.5251ZM28.8281 29.5251H28.828H24.6467C24.7604 29.2707 24.8242 28.9886 24.8242 28.6915C24.8242 28.3944 24.7604 28.1123 24.6467 27.8579H24.8307C25.9292 27.8579 26.8228 26.9497 26.8228 25.8335C26.8228 25.5079 26.7464 25.2002 26.6114 24.9274C27.4549 24.692 28.0766 23.9063 28.0766 22.9755C28.0766 22.5239 27.9302 22.1064 27.6833 21.7694V14.2229C27.6833 13.8941 27.4209 13.6274 27.0974 13.6274C26.7738 13.6274 26.5114 13.8941 26.5114 14.2229V20.9984C26.3737 20.9678 26.2309 20.9511 26.0843 20.9511H26.0651C26.1787 20.6967 26.2425 20.4146 26.2425 20.1175C26.2425 19.0012 25.3488 18.0931 24.2503 18.0931H23.3084C24.3086 17.6572 25.011 16.647 25.011 15.4729C25.011 13.9016 23.7531 12.6232 22.2068 12.6232C20.6606 12.6232 19.4026 13.9016 19.4026 15.4729C19.4026 16.647 20.1051 17.6572 21.1052 18.0931H17.9023V6.77138C18.949 6.53958 19.775 5.70031 20.003 4.63657H24.4106C24.6387 5.70031 25.4646 6.53958 26.5114 6.77138V8.62258C26.5114 8.95138 26.7737 9.21802 27.0973 9.21802C27.4209 9.21802 27.6833 8.95138 27.6833 8.62258V6.23978C27.6833 5.91098 27.4209 5.64434 27.0973 5.64434C26.2273 5.64434 25.5197 4.92512 25.5197 4.04114C25.5197 3.71234 25.2573 3.4457 24.9337 3.4457H19.4799C19.1564 3.4457 18.894 3.71234 18.894 4.04114C18.894 4.92518 18.1863 5.64434 17.3164 5.64434C16.9928 5.64434 16.7304 5.91098 16.7304 6.23978V18.093H15.5859V1.42129L28.8281 1.42063V29.5251ZM22.207 17.1316C21.3069 17.1316 20.5747 16.3875 20.5747 15.4729C20.5747 14.5583 21.3069 13.8142 22.207 13.8142C23.107 13.8142 23.8392 14.5583 23.8392 15.4729C23.8392 16.3875 23.107 17.1316 22.207 17.1316Z" fill="#FFBB01"/>
</svg>
