<svg width="30" height="27" viewBox="0 0 30 27" fill="none" xmlns="http://www.w3.org/2000/svg">
<path d="M19.7397 4.52051C19.0122 4.52051 18.3262 4.81131 17.8182 5.31831C17.3102 4.81131 16.6241 4.52051 15.8967 4.52051C14.383 4.52051 13.1515 5.77196 13.1515 7.31016C13.1515 8.72071 13.9347 10.1577 15.4164 11.4657C16.502 12.424 17.575 12.9793 17.6201 13.0024C17.6824 13.0344 17.7503 13.0504 17.8182 13.0504C17.8861 13.0504 17.954 13.0343 18.0163 13.0024C18.0614 12.9793 19.1344 12.424 20.22 11.4657C21.7017 10.1577 22.4849 8.72071 22.4849 7.31016C22.4849 5.77196 21.2534 4.52051 19.7397 4.52051ZM17.8182 12.0954C17.0123 11.6322 14.0304 9.75293 14.0304 7.31016C14.0304 6.26443 14.8676 5.41364 15.8967 5.41364C16.523 5.41364 17.1045 5.73117 17.4521 6.26306C17.5335 6.38768 17.6709 6.46259 17.8182 6.46259C17.9654 6.46259 18.1028 6.38768 18.1843 6.26306C18.5319 5.73117 19.1133 5.41364 19.7397 5.41364C20.7688 5.41364 21.606 6.26443 21.606 7.31016C21.606 9.75293 18.624 11.6322 17.8182 12.0954Z" fill="#FFBB01"/>
<path d="M26.7424 4.52051H24.3939C24.1512 4.52051 23.9545 4.72045 23.9545 4.96707C23.9545 5.21369 24.1512 5.41364 24.3939 5.41364H26.7424C26.9851 5.41364 27.1819 5.21369 27.1819 4.96707C27.1819 4.72045 26.9851 4.52051 26.7424 4.52051Z" fill="#FFBB01"/>
<path d="M25.803 9.29355H24.3939C24.1512 9.29355 23.9545 9.49349 23.9545 9.74011C23.9545 9.98674 24.1512 10.1867 24.3939 10.1867H25.803C26.0457 10.1867 26.2424 9.98674 26.2424 9.74011C26.2424 9.49349 26.0457 9.29355 25.803 9.29355Z" fill="#FFBB01"/>
<path d="M26.7424 6.90714H24.3939C24.1512 6.90714 23.9545 7.10708 23.9545 7.3537C23.9545 7.60032 24.1512 7.80026 24.3939 7.80026H26.7424C26.9851 7.80026 27.1819 7.60032 27.1819 7.3537C27.1819 7.10708 26.9851 6.90714 26.7424 6.90714Z" fill="#FFBB01"/>
<path d="M8.89403 11.6185C9.13673 11.6185 9.33349 11.4186 9.33349 11.172C9.33349 10.9253 9.13673 10.7254 8.89403 10.7254H7.95483C7.71214 10.7254 7.51538 10.9253 7.51538 11.172C7.51538 11.4186 7.71214 11.6185 7.95483 11.6185H8.89403Z" fill="#FFBB01"/>
<path d="M4.1969 11.6185H6.07577C6.31846 11.6185 6.51522 11.4186 6.51522 11.172C6.51522 10.9253 6.31846 10.7254 6.07577 10.7254H4.1969C3.9542 10.7254 3.75745 10.9253 3.75745 11.172C3.75745 11.4186 3.9542 11.6185 4.1969 11.6185Z" fill="#FFBB01"/>
<path d="M4.1969 14.0052H8.89389C9.13659 14.0052 9.33334 13.8052 9.33334 13.5586C9.33334 13.312 9.13659 13.112 8.89389 13.112H4.1969C3.9542 13.112 3.75745 13.312 3.75745 13.5586C3.75745 13.8052 3.9542 14.0052 4.1969 14.0052Z" fill="#FFBB01"/>
<path d="M9.33334 15.945C9.33334 15.6984 9.13659 15.4984 8.89389 15.4984H4.1969C3.9542 15.4984 3.75745 15.6984 3.75745 15.945C3.75745 16.1916 3.9542 16.3915 4.1969 16.3915H8.89389C9.13659 16.3915 9.33334 16.1916 9.33334 15.945Z" fill="#FFBB01"/>
<path d="M7.95471 18.7779H15.4698C15.7125 18.7779 15.9092 18.578 15.9092 18.3314C15.9092 18.0847 15.7125 17.8848 15.4698 17.8848H7.95471C7.71202 17.8848 7.51526 18.0847 7.51526 18.3314C7.51526 18.578 7.71202 18.7779 7.95471 18.7779Z" fill="#FFBB01"/>
<path d="M4.1969 17.8848C3.9542 17.8848 3.75745 18.0847 3.75745 18.3314C3.75745 18.578 3.9542 18.7779 4.1969 18.7779H6.07577C6.31846 18.7779 6.51522 18.578 6.51522 18.3314C6.51522 18.0847 6.31846 17.8848 6.07577 17.8848H4.1969Z" fill="#FFBB01"/>
<path d="M25.803 11.6802H24.3939C24.1512 11.6802 23.9545 11.8801 23.9545 12.1267C23.9545 12.3734 24.1512 12.5733 24.3939 12.5733H25.803C26.0457 12.5733 26.2424 12.3734 26.2424 12.1267C26.2424 11.8801 26.0457 11.6802 25.803 11.6802Z" fill="#FFBB01"/>
<path d="M28.1515 0.702271H12.1818C11.1625 0.702271 10.3333 1.54491 10.3333 2.5807V14.5131C10.3333 15.5489 11.1625 16.3915 12.1818 16.3915H22.3331L25.6298 19.7416C25.8042 19.9188 26.0356 20.0127 26.2718 20.0127C26.389 20.0127 26.5075 19.9895 26.6206 19.9419C26.9616 19.7984 27.1819 19.4633 27.1819 19.0883V16.3916H28.1515C29.1708 16.3916 30 15.5489 30 14.5131V2.5807C30 1.54491 29.1708 0.702271 28.1515 0.702271ZM29.1211 14.5131C29.1211 15.0564 28.6862 15.4984 28.1515 15.4984H26.7424C26.4997 15.4984 26.303 15.6984 26.303 15.945V19.0883C26.303 19.0989 26.303 19.1089 26.2843 19.1167C26.2656 19.1245 26.2587 19.1175 26.2513 19.1101L22.8259 15.6292C22.7435 15.5455 22.6317 15.4984 22.5152 15.4984H12.1818C11.6472 15.4984 11.2122 15.0564 11.2122 14.5131V2.5807C11.2122 2.03738 11.6472 1.5954 12.1818 1.5954H28.1514C28.6861 1.5954 29.121 2.03738 29.121 2.5807V14.5131H29.1211Z" fill="#FFBB01"/>
<path d="M19.2272 17.4076C18.9846 17.4076 18.7878 17.6075 18.7878 17.8541V20.7179C18.7878 21.2613 18.3529 21.7032 17.8182 21.7032H7.48488C7.36834 21.7032 7.25654 21.7503 7.17416 21.834L3.74877 25.3149C3.74145 25.3224 3.73441 25.3294 3.71578 25.3216C3.69709 25.3137 3.69709 25.3037 3.69709 25.2932V22.1499C3.69709 21.9032 3.50033 21.7033 3.25764 21.7033H1.84852C1.31385 21.7033 0.878906 21.2613 0.878906 20.718V8.78556C0.878906 8.24224 1.31385 7.80026 1.84852 7.80026H8.89406C9.13676 7.80026 9.33352 7.60032 9.33352 7.3537C9.33352 7.10708 9.13676 6.90714 8.89406 6.90714H1.84852C0.829219 6.90714 0 7.74977 0 8.78556V20.7179C0 21.7537 0.829219 22.5964 1.84852 22.5964H2.81813V25.2931C2.81813 25.6681 3.03844 26.0032 3.37939 26.1467C3.49254 26.1943 3.61096 26.2175 3.72826 26.2175C3.9644 26.2175 4.19584 26.1236 4.37022 25.9464L7.66693 22.5964H17.8182C18.8375 22.5964 19.6668 21.7537 19.6668 20.7179V17.8541C19.6667 17.6075 19.4699 17.4076 19.2272 17.4076Z" fill="#FFBB01"/>
</svg>
